<?xml version="1.0" encoding="UTF-8"?>
<svg width="36px" height="36px" viewBox="0 0 36 36" version="1.1" xmlns="http://www.w3.org/2000/svg" xmlns:xlink="http://www.w3.org/1999/xlink">
    <title>moon</title>
    <g id="Page-1" stroke="none" stroke-width="1" fill="none" fill-rule="evenodd">
        <g id="moon" fill="#FFFFFF" fill-rule="nonzero">
            <path d="M18,36 C13,36 8.75,34.25 5.25,30.75 C1.75,27.25 0,23 0,18 C0,13 1.75,8.75 5.25,5.25 C8.75,1.75 13,0 18,0 C18.2666667,0 18.55,0.00833333333 18.85,0.025 C19.15,0.0416666667 19.5333333,0.0666666667 20,0.1 C18.8,1.16666667 17.8666667,2.48333333 17.2,4.05 C16.5333333,5.61666667 16.2,7.26666667 16.2,9 C16.2,12 17.25,14.55 19.35,16.65 C21.45,18.75 24,19.8 27,19.8 C28.7333333,19.8 30.3833333,19.4916667 31.95,18.875 C33.5166667,18.2583333 34.8333333,17.4 35.9,16.3 C35.9333333,16.7 35.9583333,17.025 35.975,17.275 C35.9916667,17.525 36,17.7666667 36,18 C36,23 34.25,27.25 30.75,30.75 C27.25,34.25 23,36 18,36 Z" id="Path"></path>
        </g>
    </g>
</svg>